<svg xmlns="http://www.w3.org/2000/svg" xml:space="preserve" viewBox="0 0 16 16"><path fill="#E43A25" d="M1.06 3.53a8 8 0 1 0 13.88 0H1.06z"/><path fill="#E43A25" d="M15.75 7.75c0 .63-1.56 1.04-1.71 1.62-.16.6.97 1.73.67 2.26-.3.53-1.86.1-2.3.54-.42.43 0 1.99-.53 2.3-.53.3-1.66-.84-2.26-.68-.58.15-1 1.71-1.62 1.71s-1.04-1.56-1.62-1.71c-.6-.16-1.73.98-2.26.67-.53-.3-.1-1.86-.54-2.3-.43-.42-1.98 0-2.3-.53-.3-.53.84-1.66.68-2.26-.15-.58-1.71-1-1.71-1.62s1.56-1.04 1.71-1.62c.16-.6-.98-1.73-.67-2.26.3-.53 1.86-.1 2.3-.54.42-.43 0-1.98.53-2.3.53-.3 1.66.84 2.26.68C6.96 1.56 7.38 0 8 0s1.04 1.56 1.62 1.71c.6.16 1.73-.98 2.26-.67.53.3.1 1.86.54 2.3.43.42 1.98 0 2.3.53.3.53-.84 1.66-.68 2.26.15.58 1.71 1 1.71 1.62z"/><ellipse cx="5.28" cy="9" rx="1.72" ry="2.94"/><ellipse cx="11.28" cy="9" rx="1.72" ry="2.94"/><circle cx="11.88" cy="7" r=".63" fill="#FFF"/><circle cx="5.88" cy="7" r=".63" fill="#FFF"/><path fill="#FFF" d="M9 9.43c-6.62 0-12 3.6-12 8.04S2.38 25.5 9 25.5s12-3.6 12-8.03-5.38-8.04-12-8.04z"/><ellipse cx="8" cy="18.03" rx="11.5" ry="7.53"/><path fill="#FFF" d="M13.54 4.89c.12.23.1.6-.08 1.11l-1.51 3.8c.24.04.47.08.7.14L14.28 6c.14-.37.28-.65.42-.85.14-.2.32-.36.52-.46.2-.1.47-.18.79-.23V4H12.3v.46l.44.03c.42.03.68.16.8.4zM5.5 14l2.6-6.72.85 2.12c.01 0 .04.07.06.07.46 0 .92.03 1.36.06L9.15 6C9 5.5 9 5.13 9.12 4.89c.13-.25.38-.38.73-.4l.51-.03V4h-4.3v.46l.35.03c.32.03.59.17.79.42.2.25.38.66.53 1.23l-2.22 5.78L3.21 6c-.17-.47-.19-.83-.05-1.1.13-.25.38-.4.75-.41l.5-.03V4H0v.46c.3.03.55.09.74.17.18.09.34.24.48.45.13.2.27.51.41.92l3.24 8h.63z"/></svg>