<svg width="160" height="100" xmlns="http://www.w3.org/2000/svg">
    <style>
        line, rect { vector-effect: non-scaling-stroke; }
    </style>
    <svg preserveAspectRatio="none">
        <mask id="text">
            <rect x="0" y="0" width="100%" height="100%" fill="#fff"/>
            <rect x="50%" y="50%" transform="translate(-12 -15)" width="24" height="30" fill="#000"/>
        </mask>
        <rect x="0" y="0" width="100%" height="100%" stroke="#e5e5e5" stroke-width="4" fill="#fff"/>
        <line fill="none" stroke="#e5e5e5" stroke-width="2" x1="0" x2="100%" y1="0" y2="100%" mask="url(#text)"/>
        <line fill="none" stroke="#e5e5e5" stroke-width="2" x1="100%" x2="0" y1="0" y2="100%" mask="url(#text)"/>
    </svg>
    <svg x="50%" y="50%" width="16" height="19" transform="translate(-8 -9.5)">
        <clipPath id="a"><path d="M17 19v-9l-8 9h8zM0 0v19h2L17 8V0H0z"/></clipPath><g clip-path="url(#a)"><g stroke-miterlimit="3"><path fill="none" stroke="gray" d="M11.5 5V1.5h.5L15.5 5v.5"/><path fill="#FFF" stroke="#000" d="M11 1.5H.5v17h15v-13H11"/></g><path fill="#CCC" d="M11 6V3H2v14h12V6z"/><path fill="#F0F" d="M3 10l6 6H3z"/><path fill="red" d="M3 10v1l5 5h1z"/><path d="M3 15v1h6l-1-1z"/><circle fill="#39B54A" cx="7" cy="6" r="2.5"/><path d="M8.35 3.9c.25.39.4.852.4 1.35a2.5 2.5 0 0 1-2.5 2.5c-.498 0-.96-.15-1.35-.4A2.495 2.495 0 0 0 7 8.5 2.5 2.5 0 0 0 9.5 6c0-.883-.46-1.654-1.15-2.1z"/><path fill="#0F0" d="M6 5h1v1H6z"/><path fill="#00F" d="M9 9h5v5H9z"/><path fill="#0FF" d="M10 10h1v1h-1z"/><path d="M9 13h5v1H9z"/></g>
    </svg>
</svg>
